<?xml version="1.0" encoding="UTF-8" standalone="no"?>
<!-- Created with Inkscape (http://www.inkscape.org/) -->

<svg
   xmlns:osb="http://www.openswatchbook.org/uri/2009/osb"
   xmlns:dc="http://purl.org/dc/elements/1.1/"
   xmlns:cc="http://creativecommons.org/ns#"
   xmlns:rdf="http://www.w3.org/1999/02/22-rdf-syntax-ns#"
   xmlns:svg="http://www.w3.org/2000/svg"
   xmlns="http://www.w3.org/2000/svg"
   xmlns:sodipodi="http://sodipodi.sourceforge.net/DTD/sodipodi-0.dtd"
   xmlns:inkscape="http://www.inkscape.org/namespaces/inkscape"
   width="210mm"
   height="297mm"
   viewBox="0 0 210 297"
   version="1.1"
   id="svg860"
   inkscape:version="0.92.4 (5da689c313, 2019-01-14)"
   sodipodi:docname="描画.svg">
  <defs
     id="defs854">
    <linearGradient
       id="linearGradient6342"
       osb:paint="solid">
      <stop
         style="stop-color:#000000;stop-opacity:1;"
         offset="0"
         id="stop6340" />
    </linearGradient>
  </defs>
  <sodipodi:namedview
     id="base"
     pagecolor="#ffffff"
     bordercolor="#666666"
     borderopacity="1.0"
     inkscape:pageopacity="0.0"
     inkscape:pageshadow="2"
     inkscape:zoom="0.64"
     inkscape:cx="521.90192"
     inkscape:cy="605.81002"
     inkscape:document-units="mm"
     inkscape:current-layer="layer1"
     showgrid="false"
     showguides="false"
     inkscape:window-width="1024"
     inkscape:window-height="659"
     inkscape:window-x="0"
     inkscape:window-y="31"
     inkscape:window-maximized="1"
     inkscape:lockguides="true" />
  <metadata
     id="metadata857">
    <rdf:RDF>
      <cc:Work
         rdf:about="">
        <dc:format>image/svg+xml</dc:format>
        <dc:type
           rdf:resource="http://purl.org/dc/dcmitype/StillImage" />
        <dc:title></dc:title>
      </cc:Work>
    </rdf:RDF>
  </metadata>
  <g
     inkscape:label="レイヤー 1"
     inkscape:groupmode="layer"
     id="layer1">
    <path
       id="rect862"
       transform="scale(0.26458333)"
       style="fill:#2b0000;fill-opacity:0;stroke:#ccffff;stroke-width:1.00157475;stroke-miterlimit:4;stroke-dasharray:none;stroke-opacity:0"
       d="M 208.57227,231.0918 V 382.27148 H 359.75195 V 231.0918 Z" />
    <path
       id="rect864"
       transform="scale(0.26458333)"
       style="fill:#280b0b;fill-opacity:0;stroke:#ccffff;stroke-width:1.00157475;stroke-miterlimit:4;stroke-dasharray:none;stroke-opacity:0"
       d="M 85.714844,276.80469 V 427.98633 H 236.89453 V 276.80469 Z" />
    <rect
       style="fill:#40c049;fill-opacity:1;stroke:#ccffff;stroke-width:0.26499999;stroke-miterlimit:4;stroke-dasharray:none;stroke-opacity:0"
       id="rect866"
       width="40"
       height="40"
       x="1.9371357"
       y="1.2102304" />
    <rect
       style="fill:#40c085;fill-opacity:1;stroke:#ccffff;stroke-width:0.26499999;stroke-miterlimit:4;stroke-dasharray:none;stroke-opacity:0"
       id="rect866-3"
       width="40"
       height="40"
       x="41.937134"
       y="1.2102304" />
    <rect
       style="fill:#40c0c0;fill-opacity:1;stroke:#ccffff;stroke-width:0.26499999;stroke-miterlimit:4;stroke-dasharray:none;stroke-opacity:0"
       id="rect866-6"
       width="40"
       height="40"
       x="81.937134"
       y="1.2102304" />
    <rect
       style="fill:#4046bf;fill-opacity:1;stroke:#ccffff;stroke-width:0.26499999;stroke-miterlimit:4;stroke-dasharray:none;stroke-opacity:0"
       id="rect866-7"
       width="40"
       height="40"
       x="161.93713"
       y="1.2102304" />
    <rect
       style="fill:#4182bf;fill-opacity:1;stroke:#ccffff;stroke-width:0.26499999;stroke-miterlimit:4;stroke-dasharray:none;stroke-opacity:0"
       id="rect866-5"
       width="40"
       height="40"
       x="121.93713"
       y="1.2102304" />
    <flowRoot
       xml:space="preserve"
       id="flowRoot1502"
       style="fill:black;fill-opacity:1;stroke:none;font-family:sans-serif;font-style:normal;font-weight:normal;font-size:40px;line-height:1.25;letter-spacing:0px;word-spacing:0px"><flowRegion
         id="flowRegion1504"><rect
           id="rect1506"
           width="38.057926"
           height="99.441673"
           x="793.07806"
           y="1124.975" /></flowRegion><flowPara
         id="flowPara1508" /></flowRoot>    <flowRoot
       xml:space="preserve"
       id="flowRoot1510"
       style="fill:black;fill-opacity:1;stroke:none;font-family:sans-serif;font-style:normal;font-weight:normal;font-size:40px;line-height:1.25;letter-spacing:0px;word-spacing:0px"><flowRegion
         id="flowRegion1512"><rect
           id="rect1514"
           width="769.79681"
           height="377.65753"
           x="17.14286"
           y="313.94821" /></flowRegion><flowPara
         id="flowPara1516" /></flowRoot>    <flowRoot
       xml:space="preserve"
       id="flowRoot1518"
       style="fill:black;fill-opacity:1;stroke:none;font-family:sans-serif;font-style:normal;font-weight:normal;font-size:40px;line-height:1.25;letter-spacing:0px;word-spacing:0px"><flowRegion
         id="flowRegion1520"><rect
           id="rect1522"
           width="20.870474"
           height="105.58005"
           x="398.99438"
           y="285.24533" /></flowRegion><flowPara
         id="flowPara1524" /></flowRoot>    <flowRoot
       xml:space="preserve"
       id="flowRoot1559"
       style="fill:black;fill-opacity:1;stroke:none;font-family:sans-serif;font-style:normal;font-weight:normal;font-size:40px;line-height:1.25;letter-spacing:0px;word-spacing:0px"><flowRegion
         id="flowRegion1561"><rect
           id="rect1563"
           width="751.3371"
           height="209.93242"
           x="34.374901"
           y="476.76263" /></flowRegion><flowPara
         id="flowPara1565" /></flowRoot>    <text
       xml:space="preserve"
       style="font-style:normal;font-weight:normal;font-size:10.58333302px;line-height:1.25;font-family:sans-serif;letter-spacing:0px;word-spacing:0px;fill:#000000;fill-opacity:1;stroke:none;stroke-width:0.26458332"
       x="7.7957358"
       y="54.03289"
       id="text1569"><tspan
         sodipodi:role="line"
         id="tspan1567"
         x="7.7957358"
         y="64.6679"
         style="stroke-width:0.26458332" /></text>
    <flowRoot
       xml:space="preserve"
       id="flowRoot1571"
       style="fill:black;fill-opacity:1;stroke:none;font-family:sans-serif;font-style:normal;font-weight:normal;font-size:40px;line-height:1.25;letter-spacing:0px;word-spacing:0px"><flowRegion
         id="flowRegion1573"><rect
           id="rect1575"
           width="147.321"
           height="208.70474"
           x="17.18745"
           y="475.53497" /></flowRegion><flowPara
         id="flowPara1577" /></flowRoot>    <text
       xml:space="preserve"
       style="font-style:normal;font-weight:normal;font-size:10.58333302px;line-height:1.25;font-family:sans-serif;letter-spacing:0px;word-spacing:0px;fill:#000000;fill-opacity:1;stroke:none;stroke-width:0.26458332"
       x="6.1716242"
       y="51.109489"
       id="text1581"><tspan
         sodipodi:role="line"
         id="tspan1579"
         x="6.1716242"
         y="61.744499"
         style="stroke-width:0.26458332" /></text>
    <path
       id="rect1583"
       transform="scale(0.26458333)"
       style="fill:#00eef0;fill-opacity:1;stroke:#ccffff;stroke-width:1.00157475;stroke-miterlimit:4;stroke-dasharray:none;stroke-opacity:0"
       d="M 19.642578,398.19141 V 549.37305 H 170.82422 V 398.19141 Z" />
    <path
       id="rect1585"
       transform="scale(0.26458333)"
       style="fill:#19ffff;fill-opacity:1;stroke:#ccffff;stroke-width:1.00157475;stroke-miterlimit:4;stroke-dasharray:none;stroke-opacity:0"
       d="M 170.82422,398.19141 V 549.37305 H 322.00586 V 398.19141 Z" />
    <path
       id="rect1587"
       transform="scale(0.26458333)"
       style="fill:#41ffff;fill-opacity:1;stroke:#ccffff;stroke-width:1.00157475;stroke-miterlimit:4;stroke-dasharray:none;stroke-opacity:0"
       d="M 322.00586,398.19141 V 549.37305 H 473.18555 V 398.19141 Z" />
    <path
       id="rect1589"
       transform="scale(0.26458333)"
       style="fill:#69ffff;fill-opacity:1;stroke:#ccffff;stroke-width:1.00157475;stroke-miterlimit:4;stroke-dasharray:none;stroke-opacity:0"
       d="M 473.18555,398.19141 V 549.37305 H 624.36719 V 398.19141 Z" />
    <path
       id="rect1591"
       transform="scale(0.26458333)"
       style="fill:#91ffff;fill-opacity:1;stroke:#ccffff;stroke-width:1.00157475;stroke-miterlimit:4;stroke-dasharray:none;stroke-opacity:0"
       d="M 624.36719,398.19141 V 549.37305 H 775.54883 V 398.19141 Z" />
    <rect
       style="fill:#00ffff;fill-opacity:1;stroke:#ccffff;stroke-width:0.26499999;stroke-miterlimit:4;stroke-dasharray:none;stroke-opacity:0"
       id="rect1593"
       width="0.97446698"
       height="1.2992893"
       x="16.565939"
       y="24.798878" />
    <rect
       style="fill:#00ffff;fill-opacity:1;stroke:#ccffff;stroke-width:0.26499999;stroke-miterlimit:4;stroke-dasharray:none;stroke-opacity:0"
       id="rect1597"
       width="0.32482234"
       height="1.6241117"
       x="11.368782"
       y="5.9591827" />
    <text
       xml:space="preserve"
       style="font-style:normal;font-weight:normal;font-size:10.58333302px;line-height:1.25;font-family:sans-serif;letter-spacing:0px;word-spacing:0px;fill:#000000;fill-opacity:1;stroke:none;stroke-width:0.26458332"
       x="15.591472"
       y="169.66965"
       id="text1612"><tspan
         sodipodi:role="line"
         id="tspan1610"
         x="15.591472"
         y="180.30466"
         style="stroke-width:0.26458332" /></text>
    <path
       id="text1618"
       transform="scale(0.26458333)"
       style="font-style:normal;font-weight:normal;font-size:10.58333302px;line-height:1.25;font-family:sans-serif;letter-spacing:0px;word-spacing:0px;fill:#000000;fill-opacity:1;stroke:none;stroke-width:0.99999994"
       d="m 269.94922,555.11133 c -1.14583,0 -2.40886,0.16276 -3.78906,0.48828 -1.38021,0.32552 -2.86459,0.80729 -4.45313,1.44531 v 3.98438 c 1.5625,-0.8724 3.02735,-1.52344 4.39453,-1.95313 1.38021,-0.42969 2.6888,-0.64453 3.92578,-0.64453 1.7448,0 3.15757,0.48828 4.23828,1.46484 1.09375,0.97657 1.64063,2.23959 1.64063,3.78907 0,0.95052 -0.25391,1.92057 -0.76172,2.91015 -0.49479,0.97657 -1.3737,2.17448 -2.63672,3.59375 -0.66406,0.75521 -2.29166,2.44141 -4.88281,5.0586 -2.57812,2.60416 -4.61589,4.68099 -6.11328,6.23047 v 3.32031 h 18.51562 v -3.32031 h -13.76953 c 3.17709,-3.24219 5.63803,-5.76172 7.38281,-7.5586 1.7448,-1.80989 2.77995,-2.90364 3.10547,-3.28125 1.1849,-1.45833 1.9987,-2.72135 2.44141,-3.78906 0.45573,-1.08073 0.68359,-2.22005 0.68359,-3.41797 0,-2.52604 -0.89843,-4.54427 -2.69531,-6.05469 -1.79687,-1.51041 -4.20573,-2.26562 -7.22656,-2.26562 z m 26.8164,0 c -2.89061,0 -5.16927,0.67708 -6.83593,2.03125 -1.65365,1.35416 -2.48047,3.19661 -2.48047,5.52734 0,1.66667 0.46875,3.07943 1.40625,4.23828 0.95052,1.15886 2.27213,1.94662 3.96484,2.36328 -1.90104,0.44271 -3.38541,1.3086 -4.45312,2.59766 -1.06771,1.28906 -1.60157,2.86458 -1.60157,4.72656 10e-6,2.82552 0.85938,4.99349 2.57813,6.50391 1.73177,1.51042 4.20574,2.26562 7.42187,2.26562 3.21615,0 5.6836,-0.7552 7.40235,-2.26562 1.73177,-1.51042 2.59765,-3.67839 2.59765,-6.50391 0,-1.86198 -0.53385,-3.4375 -1.60156,-4.72656 -1.05468,-1.28906 -2.53255,-2.15495 -4.43359,-2.59766 1.67969,-0.41666 2.98828,-1.20442 3.92578,-2.36328 0.95052,-1.15885 1.42578,-2.57161 1.42578,-4.23828 0,-2.33073 -0.82682,-4.17318 -2.48047,-5.52734 -1.65364,-1.35417 -3.93229,-2.03125 -6.83594,-2.03125 z m -116.05468,0.52734 v 29.16016 h 3.94531 v -13.88672 h 14.33594 v 13.88672 h 3.94531 v -29.16016 h -3.94531 v 11.95313 h -14.33594 v -11.95313 z m 63.76953,0 -6.97266,1.40625 v 3.59375 l 7.01172,-1.40625 v 22.2461 h -6.44531 v 3.32031 h 16.79687 v -3.32031 h -6.44531 v -25.83985 z m 52.28515,2.59766 c 1.69271,0 3.01433,0.42318 3.96485,1.26953 0.96354,0.84635 1.44531,2.02474 1.44531,3.53516 0,1.51041 -0.48177,2.6888 -1.44531,3.53515 -0.95052,0.84636 -2.27214,1.26953 -3.96485,1.26953 -1.70571,0 -3.03385,-0.42317 -3.98437,-1.26953 -0.9375,-0.84635 -1.40625,-2.02474 -1.40625,-3.53515 0,-1.51042 0.46875,-2.68881 1.40625,-3.53516 0.95052,-0.84635 2.27866,-1.26953 3.98437,-1.26953 z m -72.48046,5.8789 v 4.96094 h 4.12109 v -4.96094 z m 72.48046,6.83594 c 1.88803,0 3.36589,0.5013 4.4336,1.50391 1.08073,1.0026 1.62109,2.38281 1.62109,4.14062 0,1.74479 -0.54036,3.125 -1.62109,4.14063 -1.08073,1.0026 -2.5586,1.5039 -4.4336,1.5039 -1.87498,0 -3.35286,-0.5013 -4.43359,-1.5039 -1.06771,-1.00261 -1.60156,-2.38281 -1.60156,-4.14063 0,-1.75781 0.53385,-3.13802 1.60156,-4.14062 1.08073,-1.00261 2.55861,-1.50391 4.43359,-1.50391 z m -72.48046,8.88672 v 4.96094 h 4.12109 v -4.96094 z m -34.62891,29.28125 c -3.1901,0 -5.69661,0.74219 -7.51953,2.22656 -1.8099,1.48438 -2.71484,3.51563 -2.71484,6.09375 -10e-6,2.22657 0.65755,3.96485 1.97265,5.21485 1.31511,1.25 3.44401,2.16797 6.38672,2.7539 l 2.40234,0.46875 c 2.00521,0.40365 3.44401,1.00912 4.31641,1.81641 0.88542,0.80729 1.32812,1.92708 1.32812,3.35937 10e-6,1.64063 -0.61197,2.90365 -1.83593,3.78907 -1.22396,0.88541 -2.96224,1.32812 -5.21485,1.32812 -1.48437,0 -2.99479,-0.22786 -4.53125,-0.68359 -1.53645,-0.45573 -3.10547,-1.13281 -4.70703,-2.03125 v 4.0625 c 1.66667,0.61198 3.27474,1.07422 4.82422,1.38672 1.5625,0.3125 3.03386,0.46875 4.41406,0.46875 3.65886,0 6.4323,-0.72917 8.32032,-2.1875 1.90104,-1.45834 2.85156,-3.60026 2.85156,-6.42578 0,-2.3698 -0.70313,-4.25782 -2.10938,-5.66407 -1.39323,-1.41927 -3.56119,-2.40885 -6.5039,-2.96875 l -2.38282,-0.48828 c -2.16144,-0.40364 -3.63281,-0.93099 -4.41406,-1.58203 -0.76823,-0.66406 -1.15234,-1.64062 -1.15234,-2.92969 0,-1.53646 0.57943,-2.72135 1.73828,-3.55468 1.17187,-0.83334 2.83203,-1.25 4.98047,-1.25 1.23698,0 2.51954,0.17578 3.84765,0.52734 1.32813,0.35156 2.74089,0.88542 4.23829,1.60156 v -3.84765 c -1.48438,-0.4948 -2.9362,-0.86589 -4.35547,-1.11329 -1.41927,-0.24739 -2.8125,-0.37109 -4.17969,-0.37109 z m 50.13672,0 c -1.14583,0 -2.40886,0.16276 -3.78906,0.48828 -1.38021,0.32552 -2.86459,0.80729 -4.45313,1.44531 v 3.98438 c 1.5625,-0.8724 3.02735,-1.52344 4.39453,-1.95313 1.38021,-0.42968 2.6888,-0.64453 3.92578,-0.64453 1.7448,0 3.15756,0.48828 4.23829,1.46485 1.09373,0.97656 1.64062,2.23958 1.64062,3.78906 0,0.95052 -0.25391,1.92057 -0.76172,2.91016 -0.49479,0.97656 -1.3737,2.17447 -2.63672,3.59375 -0.66406,0.7552 -2.29166,2.4414 -4.88281,5.05859 -2.57812,2.60417 -4.61589,4.68099 -6.11328,6.23047 v 3.32031 h 18.51562 v -3.32031 h -13.76953 c 3.17709,-3.24219 5.63802,-5.76172 7.38282,-7.5586 1.74478,-1.80989 2.77994,-2.90364 3.10546,-3.28125 1.1849,-1.45833 1.9987,-2.72135 2.44141,-3.78906 0.45573,-1.08073 0.68359,-2.22005 0.68359,-3.41797 0,-2.52604 -0.89843,-4.54427 -2.69531,-6.05468 -1.79687,-1.51042 -4.20573,-2.26563 -7.22656,-2.26563 z m 18.41797,0.52734 v 14.64844 c 1.09375,-0.49479 2.16146,-0.85937 3.20312,-1.09375 1.05469,-0.23437 2.10939,-0.35156 3.16406,-0.35156 2.25261,0 4.03646,0.59245 5.35157,1.77734 1.3151,1.1849 1.97265,2.79297 1.97265,4.82422 0,2.03125 -0.65755,3.63932 -1.97265,4.82422 -1.31511,1.1849 -3.09896,1.77734 -5.35157,1.77734 -1.39321,0 -2.71484,-0.15625 -3.96484,-0.46875 -1.25,-0.3125 -2.46094,-0.78776 -3.63281,-1.42578 v 3.96485 c 1.35417,0.41666 2.66276,0.72916 3.92578,0.9375 1.27604,0.20833 2.52604,0.3125 3.75,0.3125 3.55469,0 6.30859,-0.86589 8.26172,-2.59766 1.95312,-1.74479 2.92969,-4.1862 2.92969,-7.32422 0,-3.04687 -0.95052,-5.46224 -2.85157,-7.24609 -1.90104,-1.78386 -4.47916,-2.67578 -7.73437,-2.67578 -0.57292,0 -1.14583,0.0521 -1.71875,0.15625 -0.57292,0.0911 -1.14583,0.23437 -1.71875,0.42968 v -7.14843 h 11.875 v -3.32032 z m 25.46875,0 v 14.64844 c 1.09375,-0.49479 2.16146,-0.85937 3.20312,-1.09375 1.05469,-0.23437 2.10938,-0.35156 3.16407,-0.35156 2.25259,0 4.03645,0.59245 5.35156,1.77734 1.3151,1.1849 1.97265,2.79297 1.97265,4.82422 0,2.03125 -0.65755,3.63932 -1.97265,4.82422 -1.31511,1.1849 -3.09897,1.77734 -5.35156,1.77734 -1.39323,0 -2.71485,-0.15625 -3.96485,-0.46875 -1.25,-0.3125 -2.46094,-0.78776 -3.63281,-1.42578 v 3.96485 c 1.35417,0.41666 2.66276,0.72916 3.92578,0.9375 1.27604,0.20833 2.52604,0.3125 3.75,0.3125 3.55469,0 6.30859,-0.86589 8.26172,-2.59766 1.95312,-1.74479 2.92969,-4.1862 2.92969,-7.32422 0,-3.04687 -0.95052,-5.46224 -2.85157,-7.24609 -1.90104,-1.78386 -4.47916,-2.67578 -7.73437,-2.67578 -0.57292,0 -1.14583,0.0521 -1.71875,0.15625 -0.57292,0.0911 -1.14583,0.23437 -1.71875,0.42968 v -7.14843 h 11.875 v -3.32032 z m -64.08203,8.47657 v 4.96093 h 4.12109 v -4.96093 z m 0,15.72265 v 4.96094 h 4.12109 v -4.96094 z m 69.35546,29.28321 c -3.26821,0 -5.76822,1.29558 -7.5,3.88671 -1.71873,2.57813 -2.57812,6.32814 -2.57812,11.25 0,4.90886 0.85939,8.65887 2.57812,11.25 1.73178,2.57813 4.23179,3.86719 7.5,3.86719 3.26823,0 5.76172,-1.28906 7.48047,-3.86719 1.73177,-2.59113 2.59766,-6.34114 2.59766,-11.25 0,-4.92186 -0.86589,-8.67187 -2.59766,-11.25 -1.71875,-2.59113 -4.21224,-3.88671 -7.48047,-3.88671 z m -108.24218,0.52734 v 29.16016 h 18.14453 v -3.32032 h -14.19922 v -25.83984 z m 55.95703,0 -6.97266,1.40625 v 3.59375 l 7.01172,-1.40625 v 22.24609 h -6.44531 v 3.32032 h 16.79687 v -3.32032 h -6.44531 v -25.83984 z m 28.18359,0 -12.1289,18.47656 v 3.8086 h 13.16406 v 6.875 h 3.92578 v -6.875 h 4.16016 v -3.28125 h -4.16016 v -19.00391 z m 24.10156,2.59766 c 2.04428,0 3.57422,1.0026 4.58985,3.00781 1.02864,1.99219 1.54297,4.9935 1.54297,9.0039 0,3.9974 -0.51433,6.9987 -1.54297,9.00391 -1.01563,1.99219 -2.54557,2.98828 -4.58985,2.98828 -2.03123,0 -3.56119,-0.99609 -4.58984,-2.98828 -1.01562,-2.00521 -1.52344,-5.00651 -1.52344,-9.00391 0,-4.0104 0.50782,-7.01171 1.52344,-9.0039 1.02865,-2.00521 2.55861,-3.00781 4.58984,-3.00781 z m -23.0664,0.83984 v 15.56641 h -9.96094 z m -49.41406,5.03906 v 4.96094 h 4.12109 v -4.96094 z m 0,15.72266 v 4.96094 h 4.12109 v -4.96094 z" />
    <path
       id="text1626"
       transform="scale(0.26458333)"
       style="font-style:normal;font-weight:normal;font-size:10.58333302px;line-height:1.25;font-family:sans-serif;letter-spacing:0px;word-spacing:0px;fill:#000000;fill-opacity:1;stroke:none;stroke-width:0.99999994"
       d="m 423.4082,558.79297 c -1.14583,0 -2.40885,0.16276 -3.78906,0.48828 -1.38021,0.32552 -2.86458,0.80729 -4.45312,1.44531 v 3.98438 c 1.5625,-0.8724 3.02734,-1.52344 4.39453,-1.95313 1.38021,-0.42968 2.6888,-0.64453 3.92578,-0.64453 1.74479,0 3.15755,0.48829 4.23828,1.46484 1.09375,0.97657 1.64062,2.23959 1.64062,3.78907 0,0.95052 -0.2539,1.92057 -0.76171,2.91015 -0.4948,0.97657 -1.3737,2.17448 -2.63672,3.59375 -0.66407,0.75521 -2.29167,2.44141 -4.88282,5.0586 -2.57812,2.60416 -4.61588,4.68099 -6.11328,6.23047 v 3.32031 h 18.51563 v -3.32031 H 419.7168 c 3.17708,-3.24219 5.63802,-5.76172 7.38281,-7.5586 1.74479,-1.80989 2.77995,-2.90364 3.10547,-3.28125 1.18489,-1.45833 1.9987,-2.72135 2.4414,-3.78906 0.45573,-1.08073 0.6836,-2.22005 0.6836,-3.41797 0,-2.52604 -0.89844,-4.54427 -2.69531,-6.05469 -1.79688,-1.51041 -4.20573,-2.26562 -7.22657,-2.26562 z m 26.81641,0 c -2.89063,0 -5.16927,0.67708 -6.83594,2.03125 -1.65364,1.35417 -2.48047,3.19661 -2.48047,5.52734 0,1.66667 0.46875,3.07943 1.40625,4.23828 0.95052,1.15886 2.27214,1.94663 3.96485,2.36328 -1.90104,0.44271 -3.38542,1.3086 -4.45313,2.59766 -1.06771,1.28906 -1.60156,2.86458 -1.60156,4.72656 0,2.82552 0.85937,4.99349 2.57812,6.50391 1.73178,1.51042 4.20573,2.26562 7.42188,2.26563 3.21615,0 5.68359,-0.75521 7.40234,-2.26563 1.73177,-1.51042 2.59766,-3.67839 2.59766,-6.50391 0,-1.86198 -0.53385,-3.4375 -1.60156,-4.72656 -1.05469,-1.28906 -2.53256,-2.15495 -4.4336,-2.59766 1.67969,-0.41665 2.98828,-1.20442 3.92578,-2.36328 0.95053,-1.15885 1.42579,-2.57161 1.42579,-4.23828 0,-2.33073 -0.82683,-4.17317 -2.48047,-5.52734 -1.65365,-1.35417 -3.93229,-2.03125 -6.83594,-2.03125 z m -116.05469,0.52734 v 29.16016 h 3.94531 v -13.88672 h 14.33594 v 13.88672 h 3.94531 v -29.16016 h -3.94531 v 11.95313 h -14.33594 v -11.95313 z m 63.76953,0 -6.97265,1.40625 v 3.59375 l 7.01172,-1.40625 v 22.2461 h -6.44532 v 3.32031 h 16.79688 v -3.32031 h -6.44531 v -25.83985 z m 52.28516,2.59766 c 1.69271,0 3.01432,0.42318 3.96484,1.26953 0.96354,0.84635 1.44532,2.02474 1.44532,3.53516 0,1.51041 -0.48178,2.6888 -1.44532,3.53515 -0.95052,0.84636 -2.27213,1.26953 -3.96484,1.26953 -1.70573,0 -3.03385,-0.42317 -3.98438,-1.26953 -0.9375,-0.84635 -1.40625,-2.02474 -1.40625,-3.53515 0,-1.51042 0.46875,-2.68881 1.40625,-3.53516 0.95053,-0.84635 2.27865,-1.26953 3.98438,-1.26953 z m -72.48047,5.87891 v 4.96093 h 4.12109 v -4.96093 z m 72.48047,6.83593 c 1.88802,0 3.36588,0.5013 4.43359,1.50391 1.08073,1.0026 1.6211,2.38281 1.6211,4.14062 0,1.7448 -0.54037,3.125 -1.6211,4.14063 -1.08073,1.0026 -2.55859,1.50391 -4.43359,1.50391 -1.875,0 -3.35287,-0.50131 -4.43359,-1.50391 -1.06771,-1.00261 -1.60157,-2.38281 -1.60157,-4.14063 0,-1.75781 0.53386,-3.13802 1.60157,-4.14062 1.08072,-1.00261 2.55859,-1.50391 4.43359,-1.50391 z m -72.48047,8.88672 v 4.96094 h 4.12109 v -4.96094 z m -34.62891,29.2832 c -3.1901,0 -5.69661,0.74219 -7.51953,2.22657 -1.80989,1.48437 -2.71484,3.51562 -2.71484,6.09375 0,2.22656 0.65755,3.96484 1.97266,5.21484 1.3151,1.25 3.44401,2.16797 6.38671,2.75391 l 2.40235,0.46875 c 2.00521,0.40364 3.44401,1.00911 4.3164,1.8164 0.88542,0.80729 1.32813,1.92709 1.32813,3.35938 0,1.64062 -0.61198,2.90364 -1.83594,3.78906 -1.22396,0.88542 -2.96224,1.32813 -5.21484,1.32813 -1.48438,0 -2.99479,-0.22787 -4.53125,-0.6836 -1.53646,-0.45573 -3.10547,-1.13281 -4.70703,-2.03125 v 4.0625 c 1.66666,0.61198 3.27474,1.07422 4.82422,1.38672 1.5625,0.3125 3.03385,0.46875 4.41406,0.46875 3.65885,0 6.43229,-0.72917 8.32031,-2.1875 1.90104,-1.45833 2.85156,-3.60026 2.85156,-6.42578 0,-2.36979 -0.70312,-4.25781 -2.10937,-5.66406 -1.39323,-1.41927 -3.5612,-2.40886 -6.50391,-2.96875 l -2.38281,-0.48828 c -2.16146,-0.40365 -3.63281,-0.93099 -4.41406,-1.58204 -0.76823,-0.66406 -1.15235,-1.64062 -1.15235,-2.92968 0,-1.53646 0.57943,-2.72136 1.73828,-3.55469 1.17188,-0.83333 2.83204,-1.25 4.98047,-1.25 1.23698,0 2.51953,0.17578 3.84766,0.52734 1.32812,0.35157 2.74088,0.88542 4.23828,1.60157 v -3.84766 c -1.48437,-0.49479 -2.9362,-0.86589 -4.35547,-1.11328 -1.41927,-0.2474 -2.8125,-0.3711 -4.17969,-0.3711 z m 50.13672,0 c -1.14583,0 -2.40885,0.16276 -3.78906,0.48829 -1.38021,0.32552 -2.86458,0.80729 -4.45312,1.44531 v 3.98437 c 1.5625,-0.87239 3.02734,-1.52343 4.39453,-1.95312 1.38021,-0.42969 2.6888,-0.64453 3.92578,-0.64453 1.74479,0 3.15755,0.48828 4.23828,1.46484 1.09375,0.97656 1.64062,2.23958 1.64062,3.78906 0,0.95052 -0.2539,1.92058 -0.76171,2.91016 -0.4948,0.97656 -1.3737,2.17448 -2.63672,3.59375 -0.66407,0.75521 -2.29167,2.44141 -4.88282,5.05859 -2.57812,2.60417 -4.61588,4.68099 -6.11328,6.23047 v 3.32031 h 18.51563 v -3.32031 h -13.76953 c 3.17708,-3.24219 5.63802,-5.76172 7.38281,-7.55859 1.74479,-1.8099 2.77995,-2.90365 3.10547,-3.28125 1.18489,-1.45834 1.9987,-2.72136 2.4414,-3.78906 0.45573,-1.08073 0.6836,-2.22006 0.6836,-3.41797 0,-2.52604 -0.89844,-4.54427 -2.69531,-6.05469 -1.79688,-1.51042 -4.20573,-2.26563 -7.22657,-2.26563 z m 18.41797,0.52735 v 14.64844 c 1.09375,-0.4948 2.16146,-0.85938 3.20313,-1.09375 1.05468,-0.23438 2.10937,-0.35157 3.16406,-0.35157 2.2526,0 4.03646,0.59245 5.35156,1.77735 1.31511,1.18489 1.97266,2.79297 1.97266,4.82422 0,2.03125 -0.65755,3.63932 -1.97266,4.82421 -1.3151,1.1849 -3.09896,1.77735 -5.35156,1.77735 -1.39323,0 -2.71484,-0.15625 -3.96484,-0.46875 -1.25,-0.3125 -2.46094,-0.78776 -3.63282,-1.42578 v 3.96484 c 1.35417,0.41667 2.66276,0.72917 3.92578,0.9375 1.27605,0.20833 2.52605,0.3125 3.75,0.3125 3.55469,0 6.3086,-0.86588 8.26172,-2.59766 1.95313,-1.74479 2.92969,-4.18619 2.92969,-7.32421 0,-3.04688 -0.95052,-5.46224 -2.85156,-7.2461 -1.90104,-1.78385 -4.47917,-2.67578 -7.73438,-2.67578 -0.57291,0 -1.14583,0.0521 -1.71875,0.15625 -0.57291,0.0911 -1.14583,0.23438 -1.71875,0.42969 v -7.14844 h 11.875 v -3.32031 z m 25.46875,0 v 14.64844 c 1.09375,-0.4948 2.16146,-0.85938 3.20313,-1.09375 1.05468,-0.23438 2.10937,-0.35157 3.16406,-0.35157 2.2526,0 4.03646,0.59245 5.35156,1.77735 1.31511,1.18489 1.97266,2.79297 1.97266,4.82422 0,2.03125 -0.65755,3.63932 -1.97266,4.82421 -1.3151,1.1849 -3.09896,1.77735 -5.35156,1.77735 -1.39323,0 -2.71484,-0.15625 -3.96484,-0.46875 -1.25,-0.3125 -2.46094,-0.78776 -3.63282,-1.42578 v 3.96484 c 1.35417,0.41667 2.66276,0.72917 3.92578,0.9375 1.27605,0.20833 2.52605,0.3125 3.75,0.3125 3.55469,0 6.3086,-0.86588 8.26172,-2.59766 1.95313,-1.74479 2.92969,-4.18619 2.92969,-7.32421 0,-3.04688 -0.95052,-5.46224 -2.85156,-7.2461 -1.90104,-1.78385 -4.47917,-2.67578 -7.73438,-2.67578 -0.57291,0 -1.14583,0.0521 -1.71875,0.15625 -0.57291,0.0911 -1.14583,0.23438 -1.71875,0.42969 v -7.14844 h 11.875 v -3.32031 z m -64.08203,8.47656 v 4.96094 h 4.12109 v -4.96094 z m 0,15.72266 v 4.96093 h 4.12109 v -4.96093 z m 46.05469,29.2832 c -3.6849,0 -6.6211,1.3737 -8.8086,4.12109 -2.1875,2.73438 -3.28125,6.40625 -3.28125,11.01563 0,4.90885 0.89193,8.65885 2.67579,11.25 1.78385,2.57812 4.36197,3.86719 7.73437,3.86719 2.94271,0 5.29948,-0.90495 7.07031,-2.71485 1.77084,-1.80989 2.65625,-4.21224 2.65625,-7.20703 0,-3.05989 -0.85286,-5.47526 -2.55859,-7.24609 -1.69271,-1.78386 -4.00391,-2.67578 -6.93359,-2.67578 -1.39323,0 -2.66928,0.306 -3.82813,0.91796 -1.15885,0.59896 -2.1224,1.46485 -2.89062,2.59766 0.19531,-3.55469 0.97656,-6.21094 2.34375,-7.96875 1.3802,-1.75781 3.37239,-2.63672 5.97656,-2.63672 0.98958,0 1.98568,0.1237 2.98828,0.3711 1.01562,0.24739 2.01823,0.60548 3.00781,1.07421 v -3.59374 c -1.09375,-0.39063 -2.14844,-0.6836 -3.16406,-0.87891 -1.0026,-0.19531 -1.9987,-0.29297 -2.98828,-0.29297 z m 23.30078,0 c -3.26823,0 -5.76823,1.29557 -7.5,3.88672 -1.71875,2.57812 -2.57813,6.32812 -2.57813,11.25 0,4.90885 0.85938,8.65885 2.57813,11.25 1.73177,2.57812 4.23177,3.86719 7.5,3.86719 3.26823,0 5.76172,-1.28907 7.48047,-3.86719 1.73177,-2.59115 2.59765,-6.34115 2.59765,-11.25 0,-4.92188 -0.86588,-8.67188 -2.59765,-11.25 -1.71875,-2.59115 -4.21224,-3.88672 -7.48047,-3.88672 z m -108.24219,0.52734 V 696.5 h 18.14453 v -3.32031 h -14.19922 v -25.83985 z m 55.95703,0 -6.97265,1.40625 v 3.59375 l 7.01172,-1.40625 v 22.2461 H 383.7207 V 696.5 h 16.79688 v -3.32031 h -6.44531 v -25.83985 z m 52.28516,2.59766 c 2.04427,0 3.57422,1.0026 4.58984,3.00781 1.02865,1.99219 1.54297,4.99349 1.54297,9.00391 0,3.99739 -0.51432,6.99871 -1.54297,9.0039 -1.01562,1.99219 -2.54557,2.98829 -4.58984,2.98829 -2.03125,0 -3.5612,-0.9961 -4.58984,-2.98829 -1.01563,-2.00519 -1.52344,-5.00651 -1.52344,-9.0039 0,-4.01042 0.50781,-7.01172 1.52344,-9.00391 1.02864,-2.00521 2.55859,-3.00781 4.58984,-3.00781 z m -72.48047,5.87891 v 4.96093 h 4.12109 v -4.96093 z m 47.5,4.53125 c 1.77083,0 3.17057,0.60547 4.19922,1.8164 1.04167,1.21094 1.5625,2.8711 1.5625,4.98047 0,2.09636 -0.52083,3.75651 -1.5625,4.98047 -1.02865,1.21094 -2.42839,1.81641 -4.19922,1.81641 -1.77083,0 -3.17708,-0.60547 -4.21875,-1.81641 -1.02865,-1.22396 -1.54297,-2.88411 -1.54297,-4.98047 0,-2.10937 0.51432,-3.76953 1.54297,-4.98047 1.04167,-1.21093 2.44792,-1.8164 4.21875,-1.8164 z m -47.5,11.1914 V 696.5 h 4.12109 v -4.96094 z" />
    <path
       id="text1634"
       transform="scale(0.26458333)"
       style="font-style:normal;font-weight:normal;font-size:10.58333302px;line-height:1.25;font-family:sans-serif;letter-spacing:0px;word-spacing:0px;fill:#000000;fill-opacity:1;stroke:none;stroke-width:0.99999994"
       d="m 579.32422,563.70508 c -1.14583,0 -2.40886,0.16276 -3.78906,0.48828 -1.38021,0.32552 -2.86459,0.80729 -4.45313,1.44531 v 3.98438 c 1.5625,-0.8724 3.02735,-1.52344 4.39453,-1.95313 1.38021,-0.42969 2.6888,-0.64453 3.92578,-0.64453 1.7448,0 3.15757,0.48828 4.23828,1.46484 1.09375,0.97657 1.64063,2.23959 1.64063,3.78907 0,0.95052 -0.25391,1.92057 -0.76172,2.91015 -0.49479,0.97657 -1.3737,2.17448 -2.63672,3.59375 -0.66406,0.75521 -2.29166,2.44141 -4.88281,5.0586 -2.57812,2.60416 -4.61589,4.68099 -6.11328,6.23047 v 3.32031 h 18.51562 v -3.32031 h -13.76953 c 3.17709,-3.24219 5.63803,-5.76172 7.38281,-7.5586 1.7448,-1.80989 2.77995,-2.90364 3.10547,-3.28125 1.1849,-1.45833 1.9987,-2.72135 2.44141,-3.78906 0.45573,-1.08073 0.68359,-2.22005 0.68359,-3.41797 0,-2.52604 -0.89843,-4.54427 -2.69531,-6.05469 -1.79687,-1.51041 -4.20573,-2.26562 -7.22656,-2.26562 z m 26.8164,0 c -2.89061,0 -5.16927,0.67708 -6.83593,2.03125 -1.65365,1.35416 -2.48047,3.19661 -2.48047,5.52734 0,1.66667 0.46875,3.07943 1.40625,4.23828 0.95052,1.15886 2.27213,1.94662 3.96484,2.36328 -1.90104,0.44271 -3.38541,1.3086 -4.45312,2.59766 -1.06771,1.28906 -1.60157,2.86458 -1.60157,4.72656 0,2.82552 0.85938,4.99349 2.57813,6.50391 1.73177,1.51042 4.20574,2.26562 7.42187,2.26562 3.21615,0 5.6836,-0.7552 7.40235,-2.26562 1.73177,-1.51042 2.59765,-3.67839 2.59765,-6.50391 10e-6,-1.86198 -0.53385,-3.4375 -1.60156,-4.72656 -1.05468,-1.28906 -2.53255,-2.15495 -4.43359,-2.59766 1.67969,-0.41666 2.98828,-1.20442 3.92578,-2.36328 0.95052,-1.15885 1.42578,-2.57161 1.42578,-4.23828 0,-2.33073 -0.82682,-4.17318 -2.48047,-5.52734 -1.65364,-1.35417 -3.93229,-2.03125 -6.83594,-2.03125 z m -116.05468,0.52734 v 29.16016 h 3.94531 v -13.88672 h 14.33594 v 13.88672 h 3.94531 v -29.16016 h -3.94531 v 11.95313 h -14.33594 v -11.95313 z m 63.76953,0 -6.97266,1.40625 v 3.59375 l 7.01172,-1.40625 v 22.2461 h -6.44531 v 3.32031 h 16.79687 v -3.32031 h -6.44531 v -25.83985 z m 52.28515,2.59766 c 1.69271,0 3.01433,0.42318 3.96485,1.26953 0.96354,0.84635 1.44531,2.02474 1.44531,3.53516 0,1.51041 -0.48177,2.6888 -1.44531,3.53515 -0.95052,0.84636 -2.27214,1.26953 -3.96485,1.26953 -1.70571,0 -3.03385,-0.42317 -3.98437,-1.26953 -0.9375,-0.84635 -1.40625,-2.02474 -1.40625,-3.53515 0,-1.51042 0.46875,-2.68881 1.40625,-3.53516 0.95052,-0.84635 2.27866,-1.26953 3.98437,-1.26953 z m -72.48046,5.8789 v 4.96094 h 4.12109 v -4.96094 z m 72.48046,6.83594 c 1.88803,0 3.36589,0.5013 4.4336,1.50391 1.08073,1.0026 1.62109,2.38281 1.62109,4.14062 0,1.74479 -0.54036,3.125 -1.62109,4.14063 -1.08073,1.0026 -2.5586,1.5039 -4.4336,1.5039 -1.87498,0 -3.35286,-0.5013 -4.43359,-1.5039 -1.06771,-1.00261 -1.60156,-2.38281 -1.60156,-4.14063 0,-1.75781 0.53385,-3.13802 1.60156,-4.14062 1.08073,-1.00261 2.55861,-1.50391 4.43359,-1.50391 z m -72.48046,8.88672 v 4.96094 h 4.12109 v -4.96094 z m -34.62891,29.28125 c -3.1901,0 -5.69661,0.74219 -7.51953,2.22656 -1.8099,1.48438 -2.71484,3.51563 -2.71484,6.09375 0,2.22657 0.65755,3.96485 1.97265,5.21485 1.31511,1.25 3.44401,2.16797 6.38672,2.7539 l 2.40234,0.46875 c 2.00521,0.40365 3.44401,1.00912 4.31641,1.81641 0.88542,0.80729 1.32813,1.92708 1.32812,3.35937 10e-6,1.64063 -0.61197,2.90365 -1.83593,3.78907 -1.22396,0.88541 -2.96224,1.32812 -5.21485,1.32812 -1.48437,0 -2.99479,-0.22786 -4.53125,-0.68359 -1.53645,-0.45573 -3.10547,-1.13281 -4.70703,-2.03125 v 4.0625 c 1.66667,0.61198 3.27474,1.07422 4.82422,1.38672 1.5625,0.3125 3.03386,0.46875 4.41406,0.46875 3.65886,0 6.4323,-0.72917 8.32032,-2.1875 1.90104,-1.45834 2.85156,-3.60026 2.85156,-6.42578 0,-2.3698 -0.70313,-4.25782 -2.10938,-5.66407 -1.39323,-1.41927 -3.56119,-2.40885 -6.5039,-2.96875 l -2.38282,-0.48828 c -2.16144,-0.40364 -3.63281,-0.93099 -4.41406,-1.58203 -0.76823,-0.66406 -1.15234,-1.64062 -1.15234,-2.92969 0,-1.53646 0.57943,-2.72135 1.73828,-3.55468 1.17187,-0.83334 2.83203,-1.25 4.98047,-1.25 1.23698,0 2.51954,0.17578 3.84765,0.52734 1.32813,0.35156 2.74089,0.88542 4.23829,1.60156 v -3.84765 c -1.48438,-0.4948 -2.9362,-0.86589 -4.35547,-1.11329 -1.41927,-0.24739 -2.8125,-0.37109 -4.17969,-0.37109 z m 50.13672,0 c -1.14583,0 -2.40886,0.16276 -3.78906,0.48828 -1.38021,0.32552 -2.86459,0.80729 -4.45313,1.44531 v 3.98438 c 1.5625,-0.8724 3.02735,-1.52344 4.39453,-1.95313 1.38021,-0.42968 2.6888,-0.64453 3.92578,-0.64453 1.7448,0 3.15756,0.48828 4.23829,1.46485 1.09373,0.97656 1.64062,2.23958 1.64062,3.78906 0,0.95052 -0.25391,1.92057 -0.76172,2.91016 -0.49479,0.97656 -1.3737,2.17447 -2.63672,3.59375 -0.66406,0.7552 -2.29166,2.4414 -4.88281,5.05859 -2.57812,2.60417 -4.61589,4.68099 -6.11328,6.23047 v 3.32031 h 18.51562 v -3.32031 h -13.76953 c 3.17709,-3.24219 5.63802,-5.76172 7.38282,-7.5586 1.74478,-1.80989 2.77994,-2.90364 3.10546,-3.28125 1.1849,-1.45833 1.9987,-2.72135 2.44141,-3.78906 0.45573,-1.08073 0.68359,-2.22005 0.68359,-3.41797 0,-2.52604 -0.89843,-4.54427 -2.69531,-6.05468 -1.79687,-1.51042 -4.20573,-2.26563 -7.22656,-2.26563 z m 18.41797,0.52734 v 14.64844 c 1.09375,-0.49479 2.16146,-0.85937 3.20312,-1.09375 1.05469,-0.23437 2.10939,-0.35156 3.16406,-0.35156 2.25261,0 4.03646,0.59245 5.35157,1.77734 1.3151,1.1849 1.97265,2.79297 1.97265,4.82422 0,2.03125 -0.65755,3.63932 -1.97265,4.82422 -1.31511,1.1849 -3.09896,1.77734 -5.35157,1.77734 -1.39321,0 -2.71484,-0.15625 -3.96484,-0.46875 -1.25,-0.3125 -2.46094,-0.78776 -3.63281,-1.42578 v 3.96485 c 1.35417,0.41666 2.66276,0.72916 3.92578,0.9375 1.27604,0.20833 2.52604,0.3125 3.75,0.3125 3.55469,0 6.30859,-0.86589 8.26172,-2.59766 1.95312,-1.74479 2.92969,-4.1862 2.92969,-7.32422 0,-3.04687 -0.95052,-5.46224 -2.85157,-7.24609 -1.90104,-1.78386 -4.47916,-2.67578 -7.73437,-2.67578 -0.57292,0 -1.14583,0.0521 -1.71875,0.15625 -0.57292,0.0911 -1.14583,0.23437 -1.71875,0.42968 v -7.14843 h 11.875 v -3.32032 z m 25.46875,0 v 14.64844 c 1.09375,-0.49479 2.16146,-0.85937 3.20312,-1.09375 1.05469,-0.23437 2.10938,-0.35156 3.16407,-0.35156 2.25259,0 4.03645,0.59245 5.35156,1.77734 1.3151,1.1849 1.97265,2.79297 1.97265,4.82422 0,2.03125 -0.65755,3.63932 -1.97265,4.82422 -1.31511,1.1849 -3.09897,1.77734 -5.35156,1.77734 -1.39323,0 -2.71485,-0.15625 -3.96485,-0.46875 -1.25,-0.3125 -2.46094,-0.78776 -3.63281,-1.42578 v 3.96485 c 1.35417,0.41666 2.66276,0.72916 3.92578,0.9375 1.27604,0.20833 2.52604,0.3125 3.75,0.3125 3.55469,0 6.30859,-0.86589 8.26172,-2.59766 1.95312,-1.74479 2.92969,-4.1862 2.92969,-7.32422 0,-3.04687 -0.95052,-5.46224 -2.85157,-7.24609 -1.90104,-1.78386 -4.47916,-2.67578 -7.73437,-2.67578 -0.57292,0 -1.14583,0.0521 -1.71875,0.15625 -0.57292,0.0911 -1.14583,0.23437 -1.71875,0.42968 v -7.14843 h 11.875 v -3.32032 z m -64.08203,8.47657 v 4.96093 h 4.12109 v -4.96093 z m 0,15.72265 v 4.96094 h 4.12109 v -4.96094 z m 43.88672,29.28321 c -2.89063,0 -5.16928,0.67708 -6.83594,2.03125 -1.65365,1.35416 -2.48047,3.19661 -2.48047,5.52734 0,1.66667 0.46875,3.07943 1.40625,4.23828 0.95052,1.15886 2.27213,1.94662 3.96484,2.36328 -1.90104,0.44271 -3.38541,1.3086 -4.45312,2.59766 -1.06771,1.28906 -1.60156,2.86458 -1.60156,4.72656 0,2.82552 0.85937,4.99349 2.57812,6.50391 1.73177,1.51041 4.20573,2.26562 7.42188,2.26562 3.21613,0 5.68359,-0.75521 7.40234,-2.26562 1.73177,-1.51042 2.59766,-3.67839 2.59766,-6.50391 0,-1.86198 -0.53386,-3.4375 -1.60157,-4.72656 -1.05468,-1.28906 -2.53255,-2.15495 -4.43359,-2.59766 1.67969,-0.41666 2.98828,-1.20442 3.92578,-2.36328 0.95052,-1.15885 1.42578,-2.57161 1.42578,-4.23828 0,-2.33073 -0.82682,-4.17318 -2.48047,-5.52734 -1.65364,-1.35417 -3.9323,-2.03125 -6.83593,-2.03125 z m 25.46874,0 c -3.26821,0 -5.76822,1.29557 -7.5,3.88672 -1.71873,2.57811 -2.57812,6.32812 -2.57812,11.25 0,4.90884 0.85939,8.65885 2.57812,11.25 1.73178,2.57811 4.23179,3.86718 7.5,3.86718 3.26823,0 5.76172,-1.28907 7.48047,-3.86718 1.73177,-2.59115 2.59766,-6.34116 2.59766,-11.25 0,-4.92188 -0.86589,-8.67189 -2.59766,-11.25 -1.71875,-2.59115 -4.21224,-3.88672 -7.48047,-3.88672 z M 490.08594,672.25 v 29.16016 h 18.14453 v -3.32032 H 494.03125 V 672.25 Z m 55.95703,0 -6.97266,1.40625 V 677.25 l 7.01172,-1.40625 v 22.24609 h -6.44531 v 3.32032 h 16.79687 v -3.32032 h -6.44531 V 672.25 Z m 26.81641,2.59766 c 1.69269,0 3.01432,0.42317 3.96484,1.26953 0.96354,0.84635 1.44531,2.02474 1.44531,3.53515 0,1.51042 -0.48177,2.68881 -1.44531,3.53516 -0.95052,0.84635 -2.27215,1.26953 -3.96484,1.26953 -1.70573,0 -3.03386,-0.42318 -3.98438,-1.26953 -0.9375,-0.84635 -1.40625,-2.02474 -1.40625,-3.53516 0,-1.51041 0.46875,-2.6888 1.40625,-3.53515 0.95052,-0.84636 2.27865,-1.26953 3.98438,-1.26953 z m 25.46874,0 c 2.04428,0 3.57422,1.0026 4.58985,3.00781 1.02864,1.99219 1.54297,4.99349 1.54297,9.00391 0,3.99738 -0.51433,6.99869 -1.54297,9.0039 -1.01563,1.99219 -2.54557,2.98828 -4.58985,2.98828 -2.03123,0 -3.56119,-0.99609 -4.58984,-2.98828 -1.01562,-2.00521 -1.52344,-5.00652 -1.52344,-9.0039 0,-4.01042 0.50782,-7.01172 1.52344,-9.00391 1.02865,-2.00521 2.55861,-3.00781 4.58984,-3.00781 z m -72.48046,5.8789 v 4.96094 h 4.12109 v -4.96094 z m 47.01172,6.83594 c 1.88801,0 3.36588,0.5013 4.43359,1.50391 1.08073,1.0026 1.62109,2.38281 1.62109,4.14062 0,1.74479 -0.54036,3.125 -1.62109,4.14063 -1.08073,1.0026 -2.55861,1.5039 -4.43359,1.5039 -1.875,0 -3.35287,-0.5013 -4.4336,-1.5039 -1.06771,-1.00261 -1.60156,-2.38282 -1.60156,-4.14063 0,-1.75781 0.53385,-3.13802 1.60156,-4.14062 1.08073,-1.00261 2.5586,-1.50391 4.4336,-1.50391 z m -47.01172,8.88672 v 4.96094 h 4.12109 v -4.96094 z" />
    <path
       id="text1642"
       transform="scale(0.26458333)"
       style="font-style:normal;font-weight:normal;font-size:10.58333302px;line-height:1.25;font-family:sans-serif;letter-spacing:0px;word-spacing:0px;fill:#000000;fill-opacity:1;stroke:none;stroke-width:0.99999994"
       d="m 730.32812,564.93164 c -1.14582,0 -2.40885,0.16276 -3.78906,0.48828 -1.38021,0.32552 -2.86458,0.80729 -4.45312,1.44531 v 3.98438 c 1.5625,-0.8724 3.02734,-1.52344 4.39453,-1.95313 1.38021,-0.42968 2.6888,-0.64453 3.92578,-0.64453 1.74479,0 3.15755,0.48828 4.23828,1.46485 1.09375,0.97656 1.64063,2.23958 1.64063,3.78906 0,0.95052 -0.25391,1.92057 -0.76172,2.91016 -0.49479,0.97656 -1.3737,2.17447 -2.63672,3.59375 -0.66406,0.7552 -2.29167,2.4414 -4.88281,5.05859 -2.57813,2.60417 -4.61589,4.68099 -6.11329,6.23047 v 3.32031 h 18.51563 v -3.32031 h -13.76953 c 3.17708,-3.24219 5.63802,-5.76172 7.38281,-7.5586 1.74479,-1.80989 2.77995,-2.90364 3.10547,-3.28125 1.1849,-1.45833 1.9987,-2.72135 2.44141,-3.78906 0.45573,-1.08073 0.68359,-2.22005 0.68359,-3.41797 0,-2.52604 -0.89844,-4.54427 -2.69531,-6.05468 -1.79688,-1.51042 -4.20573,-2.26563 -7.22657,-2.26563 z m 26.81641,0 c -2.89062,0 -5.16927,0.67708 -6.83594,2.03125 -1.65364,1.35417 -2.48047,3.19662 -2.48047,5.52734 10e-6,1.66667 0.46876,3.07943 1.40626,4.23829 0.95051,1.15885 2.27213,1.94661 3.96484,2.36328 -1.90104,0.44271 -3.38542,1.30859 -4.45313,2.59765 -1.0677,1.28907 -1.60156,2.86459 -1.60156,4.72657 0,2.82552 0.85938,4.99349 2.57813,6.5039 1.73177,1.51042 4.20573,2.26563 7.42187,2.26563 3.21615,0 5.6836,-0.75521 7.40235,-2.26563 1.73176,-1.51041 2.59765,-3.67838 2.59765,-6.5039 0,-1.86198 -0.53385,-3.4375 -1.60156,-4.72657 -1.05469,-1.28906 -2.53256,-2.15494 -4.43359,-2.59765 1.67967,-0.41667 2.98828,-1.20443 3.92578,-2.36328 0.95052,-1.15886 1.42578,-2.57162 1.42578,-4.23829 0,-2.33072 -0.82683,-4.17317 -2.48047,-5.52734 -1.65365,-1.35417 -3.93229,-2.03125 -6.83594,-2.03125 z m -116.05469,0.52734 v 29.16016 h 3.94532 v -13.88672 h 14.33593 v 13.88672 h 3.94532 v -29.16016 h -3.94532 v 11.95313 h -14.33593 v -11.95313 z m 63.76954,0 -6.97266,1.40625 v 3.59375 l 7.01172,-1.40625 v 22.2461 h -6.44532 v 3.32031 H 715.25 v -3.32031 h -6.44531 v -25.83985 z m 52.28515,2.59766 c 1.69271,0 3.01432,0.42318 3.96485,1.26953 0.96353,0.84636 1.44531,2.02474 1.44531,3.53516 0,1.51041 -0.48178,2.6888 -1.44531,3.53515 -0.95053,0.84636 -2.27214,1.26954 -3.96485,1.26954 -1.70573,0 -3.03385,-0.42318 -3.98437,-1.26954 -0.9375,-0.84635 -1.40625,-2.02474 -1.40625,-3.53515 0,-1.51042 0.46875,-2.6888 1.40625,-3.53516 0.95052,-0.84635 2.27864,-1.26953 3.98437,-1.26953 z m -72.48047,5.87891 v 4.96093 h 4.1211 v -4.96093 z m 72.48047,6.83593 c 1.88802,0 3.3659,0.50131 4.43359,1.50391 1.08073,1.0026 1.6211,2.38281 1.6211,4.14063 0,1.74479 -0.54037,3.125 -1.6211,4.14062 -1.08071,1.0026 -2.55859,1.50391 -4.43359,1.50391 -1.875,0 -3.35286,-0.50131 -4.43359,-1.50391 -1.06771,-1.0026 -1.60157,-2.38281 -1.60156,-4.14062 -10e-6,-1.75782 0.53385,-3.13803 1.60156,-4.14063 1.08073,-1.0026 2.55859,-1.50391 4.43359,-1.50391 z m -72.48047,8.88672 v 4.96094 h 4.1211 v -4.96094 z m -34.6289,29.28321 c -3.19011,0 -5.69662,0.74218 -7.51954,2.22656 -1.80988,1.48437 -2.71484,3.51562 -2.71484,6.09375 0,2.22656 0.65755,3.96484 1.97266,5.21484 1.3151,1.25 3.44401,2.16797 6.38672,2.75391 l 2.40234,0.46875 c 2.00521,0.40364 3.44401,1.00912 4.31641,1.8164 0.88541,0.8073 1.32812,1.92709 1.32812,3.35938 0,1.64062 -0.61198,2.90365 -1.83594,3.78906 -1.22395,0.88542 -2.96224,1.32813 -5.21484,1.32813 -1.48437,0 -2.99479,-0.22787 -4.53125,-0.6836 -1.53646,-0.45573 -3.10547,-1.13281 -4.70703,-2.03125 v 4.0625 c 1.66667,0.61198 3.27474,1.07422 4.82422,1.38672 1.5625,0.3125 3.03385,0.46875 4.41406,0.46875 3.65885,0 6.43229,-0.72916 8.32031,-2.1875 1.90104,-1.45833 2.85157,-3.60026 2.85156,-6.42578 10e-6,-2.36979 -0.70312,-4.25781 -2.10937,-5.66406 -1.39323,-1.41927 -3.5612,-2.40886 -6.50391,-2.96875 l -2.38281,-0.48828 c -2.16146,-0.40365 -3.63281,-0.93099 -4.41406,-1.58203 -0.76823,-0.66407 -1.15235,-1.64063 -1.15235,-2.92969 0,-1.53646 0.57943,-2.72136 1.73829,-3.55469 1.17187,-0.83333 2.83203,-1.25 4.98047,-1.25 1.23696,0 2.51953,0.17578 3.84765,0.52735 1.32813,0.35155 2.74089,0.88541 4.23828,1.60156 v -3.84766 c -1.48437,-0.49479 -2.9362,-0.86588 -4.35547,-1.11328 -1.41927,-0.2474 -2.8125,-0.37109 -4.17968,-0.37109 z m 50.13672,0 c -1.14584,0 -2.40886,0.16276 -3.78907,0.48828 -1.38021,0.32552 -2.86458,0.80729 -4.45312,1.44531 v 3.98438 c 1.5625,-0.8724 3.02734,-1.52344 4.39453,-1.95313 1.38021,-0.42969 2.6888,-0.64453 3.92578,-0.64453 1.74479,0 3.15755,0.48828 4.23828,1.46484 1.09375,0.97656 1.64063,2.2396 1.64063,3.78906 0,0.95053 -0.25391,1.92058 -0.76172,2.91016 -0.49479,0.97656 -1.3737,2.17448 -2.63672,3.59375 -0.66406,0.75521 -2.29167,2.44142 -4.88281,5.05859 -2.57813,2.60417 -4.6159,4.68099 -6.11328,6.23047 v 3.32032 H 710.25 v -3.32032 h -13.76953 c 3.17708,-3.24218 5.63802,-5.76172 7.38281,-7.55859 1.74479,-1.8099 2.77995,-2.90365 3.10547,-3.28125 1.1849,-1.45833 1.9987,-2.72135 2.44141,-3.78906 0.45573,-1.08073 0.68359,-2.22005 0.68359,-3.41797 0,-2.52604 -0.89844,-4.54427 -2.69531,-6.05469 -1.79688,-1.51042 -4.20574,-2.26562 -7.22656,-2.26562 z m 18.41796,0.52734 v 14.64844 c 1.09375,-0.49479 2.16146,-0.85938 3.20313,-1.09375 1.05469,-0.23438 2.10937,-0.35156 3.16406,-0.35156 2.25261,0 4.03646,0.59244 5.35156,1.77734 1.31511,1.18489 1.97266,2.79297 1.97266,4.82422 0,2.03125 -0.65755,3.63932 -1.97266,4.82422 -1.3151,1.18489 -3.09895,1.77734 -5.35156,1.77734 -1.39323,0 -2.71484,-0.15625 -3.96484,-0.46875 -1.25,-0.3125 -2.46095,-0.78776 -3.63281,-1.42578 v 3.96484 c 1.35415,0.41667 2.66276,0.72917 3.92578,0.9375 1.27604,0.20834 2.52604,0.3125 3.75,0.3125 3.55468,0 6.30859,-0.86588 8.26172,-2.59765 1.95311,-1.7448 2.92968,-4.1862 2.92968,-7.32422 0,-3.04688 -0.95052,-5.46224 -2.85156,-7.2461 -1.90104,-1.78385 -4.47917,-2.67578 -7.73438,-2.67578 -0.5729,0 -1.14584,0.0521 -1.71874,0.15625 -0.57292,0.0912 -1.14584,0.23438 -1.71876,0.42969 v -7.14844 h 11.875 v -3.32031 z m 25.46875,0 v 14.64844 c 1.09375,-0.49479 2.16146,-0.85938 3.20313,-1.09375 1.05469,-0.23438 2.10937,-0.35156 3.16406,-0.35156 2.25261,0 4.03646,0.59244 5.35156,1.77734 1.31511,1.18489 1.97266,2.79297 1.97266,4.82422 0,2.03125 -0.65755,3.63932 -1.97266,4.82422 -1.3151,1.18489 -3.09895,1.77734 -5.35156,1.77734 -1.39323,0 -2.71484,-0.15625 -3.96484,-0.46875 -1.25,-0.3125 -2.46094,-0.78776 -3.63282,-1.42578 v 3.96484 c 1.35417,0.41667 2.66277,0.72917 3.92579,0.9375 1.27604,0.20834 2.52604,0.3125 3.75,0.3125 3.55468,0 6.3086,-0.86588 8.26171,-2.59765 1.95313,-1.7448 2.92969,-4.1862 2.92969,-7.32422 0,-3.04688 -0.95052,-5.46224 -2.85156,-7.2461 -1.90104,-1.78385 -4.47918,-2.67578 -7.73437,-2.67578 -0.57292,0 -1.14584,0.0521 -1.71876,0.15625 -0.5729,0.0912 -1.14584,0.23438 -1.71874,0.42969 v -7.14844 h 11.875 v -3.32031 z m -64.08203,8.47656 v 4.96094 h 4.1211 v -4.96094 z m 0,15.72266 v 4.96094 h 4.1211 v -4.96094 z m 17.07032,29.2832 c -1.14584,0 -2.40886,0.16276 -3.78907,0.48828 -1.38021,0.32552 -2.86458,0.80729 -4.45312,1.44532 v 3.98437 c 1.5625,-0.8724 3.02734,-1.52344 4.39453,-1.95312 1.38021,-0.42969 2.6888,-0.64454 3.92578,-0.64454 1.74479,0 3.15755,0.48829 4.23828,1.46485 1.09375,0.97656 1.64063,2.23958 1.64063,3.78906 0,0.95052 -0.25391,1.92057 -0.76172,2.91016 -0.49479,0.97656 -1.3737,2.17448 -2.63672,3.59375 -0.66406,0.75521 -2.29167,2.4414 -4.88281,5.05859 -2.57813,2.60417 -4.6159,4.68099 -6.11328,6.23047 v 3.32031 H 707.125 v -3.32031 h -13.76953 c 3.17708,-3.24219 5.63802,-5.76172 7.38281,-7.55859 1.74479,-1.8099 2.77995,-2.90365 3.10547,-3.28125 1.1849,-1.45834 1.9987,-2.72136 2.44141,-3.78907 0.45573,-1.08073 0.68359,-2.22005 0.68359,-3.41797 0,-2.52604 -0.89844,-4.54427 -2.69531,-6.05468 -1.79688,-1.51042 -4.20574,-2.26563 -7.22656,-2.26563 z m 26.8164,0 c -3.26823,0 -5.76823,1.29557 -7.5,3.88672 -1.71875,2.57813 -2.57812,6.32813 -2.57812,11.25 0,4.90885 0.85937,8.65885 2.57812,11.25 1.73177,2.57813 4.23177,3.86719 7.5,3.86719 3.26823,0 5.76172,-1.28906 7.48047,-3.86719 1.73177,-2.59115 2.59766,-6.34115 2.59766,-11.25 0,-4.92187 -0.86589,-8.67187 -2.59766,-11.25 -1.71875,-2.59115 -4.21224,-3.88672 -7.48047,-3.88672 z m 25.46875,0 c -3.26823,0 -5.76823,1.29557 -7.5,3.88672 -1.71875,2.57813 -2.57812,6.32813 -2.57812,11.25 0,4.90885 0.85937,8.65885 2.57812,11.25 1.73177,2.57813 4.23177,3.86719 7.5,3.86719 3.26823,0 5.76172,-1.28906 7.48047,-3.86719 1.73177,-2.59115 2.59766,-6.34115 2.59766,-11.25 0,-4.92187 -0.86589,-8.67187 -2.59766,-11.25 -1.71875,-2.59115 -4.21224,-3.88672 -7.48047,-3.88672 z m -108.24219,0.52735 v 29.16015 h 18.14454 v -3.32031 h -14.19922 v -25.83984 z m 82.77344,2.59765 c 2.04427,0 3.57423,1.00261 4.58984,3.00781 1.02865,1.99219 1.54297,4.99349 1.54297,9.00391 0,3.9974 -0.51432,6.9987 -1.54297,9.00391 -1.01561,1.99218 -2.54557,2.98828 -4.58984,2.98828 -2.03125,0 -3.5612,-0.9961 -4.58984,-2.98828 -1.01563,-2.00521 -1.52344,-5.00651 -1.52344,-9.00391 0,-4.01042 0.50781,-7.01172 1.52344,-9.00391 1.02864,-2.0052 2.55859,-3.00781 4.58984,-3.00781 z m 25.46875,0 c 2.04427,0 3.57422,1.00261 4.58985,3.00781 1.02863,1.99219 1.54296,4.99349 1.54296,9.00391 0,3.9974 -0.51433,6.9987 -1.54296,9.00391 -1.01563,1.99218 -2.54558,2.98828 -4.58985,2.98828 -2.03125,0 -3.5612,-0.9961 -4.58984,-2.98828 -1.01563,-2.00521 -1.52344,-5.00651 -1.52344,-9.00391 0,-4.01042 0.50781,-7.01172 1.52344,-9.00391 1.02864,-2.0052 2.55859,-3.00781 4.58984,-3.00781 z m -72.48047,5.87891 v 4.96094 h 4.1211 v -4.96094 z m 0,15.72265 v 4.96094 h 4.1211 v -4.96094 z" />
    <rect
       style="fill:#000000;fill-opacity:0;stroke-width:0.26458332"
       id="rect4070"
       width="33.389938"
       height="45.776501"
       x="5.1970987"
       y="181.64989"
       ry="5.261869" />
    <rect
       style="fill:#00d2d2;fill-opacity:0;stroke-width:0.26458332;stroke:#000000;stroke-opacity:0"
       id="rect4075"
       width="40"
       height="40"
       x="2.8584905"
       y="185.74245"
       ry="5.2618742" />
    <rect
       style="fill:#54abac;fill-opacity:1;stroke:#000000;stroke-width:0.26458332;stroke-opacity:0"
       id="rect6346"
       width="40"
       height="40.000015"
       x="2.8584905"
       y="185.74245"
       ry="0" />
    <path
       id="rect6348"
       transform="scale(0.26458333)"
       style="fill:#54abac;fill-opacity:1;stroke:#000000;stroke-width:0.99999994;stroke-opacity:0"
       d="m 238.875,692.81641 c -2.13998,0 -4.08854,0.77774 -5.5918,2.06054 2.98362,-1.22116 5.63578,-1.74482 7.91602,-1.73047 -0.73989,-0.20794 -1.51566,-0.33007 -2.32422,-0.33007 z" />
    <rect
       style="fill:#4ab5b6;fill-opacity:1;stroke:#000000;stroke-width:0.26458332;stroke-opacity:0"
       id="rect6371"
       width="40"
       height="40"
       x="42.85849"
       y="185.74245"
       ry="2.2788112" />
    <rect
       style="fill:#40bfc0;fill-opacity:1;stroke:#000000;stroke-width:0.26458332;stroke-opacity:0"
       id="rect6373"
       width="40"
       height="40"
       x="82.85849"
       y="185.74245"
       ry="2.2788112" />
    <rect
       style="fill:#36c9ca;fill-opacity:1;stroke:#000000;stroke-width:0.26458332;stroke-opacity:0"
       id="rect6375"
       width="40"
       height="40"
       x="122.85849"
       y="185.74245"
       ry="2.2788112" />
    <rect
       style="fill:#2cd3d4;fill-opacity:1;stroke:#000000;stroke-width:0.26458332;stroke-opacity:0"
       id="rect6377"
       width="40"
       height="40"
       x="162.85849"
       y="185.74245"
       ry="2.2788112" />
    <flowRoot
       xml:space="preserve"
       id="flowRoot6379"
       style="fill:black;fill-opacity:1;stroke:none;font-family:sans-serif;font-style:normal;font-weight:normal;font-size:40px;line-height:1.25;letter-spacing:0px;word-spacing:0px"><flowRegion
         id="flowRegion6381"><rect
           id="rect6383"
           width="122.25288"
           height="125.22458"
           x="23.587891"
           y="561.32617" /></flowRegion><flowPara
         id="flowPara6385"></flowPara></flowRoot>    <flowRoot
       xml:space="preserve"
       id="flowRoot6387"
       style="fill:black;fill-opacity:1;stroke:none;font-family:sans-serif;font-style:normal;font-weight:normal;font-size:40px;line-height:1.25;letter-spacing:0px;word-spacing:0px"><flowRegion
         id="flowRegion6389"><rect
           id="rect6391"
           width="51.445309"
           height="50.689472"
           x="23.587891"
           y="578.5332" /></flowRegion><flowPara
         id="flowPara6393"></flowPara></flowRoot>    <text
       xml:space="preserve"
       style="font-style:normal;font-weight:normal;font-size:10.58333302px;line-height:1.25;font-family:sans-serif;letter-spacing:0px;word-spacing:0px;fill:#000000;fill-opacity:1;stroke:none;stroke-width:0.26458332"
       x="4.0925646"
       y="237.95013"
       id="text6397"><tspan
         sodipodi:role="line"
         x="4.0925646"
         y="237.95013"
         style="stroke-width:0.26458332"
         id="tspan6399">H:128</tspan><tspan
         sodipodi:role="line"
         x="4.0925646"
         y="252.24011"
         style="stroke-width:0.26458332"
         id="tspan6407">S:88</tspan><tspan
         sodipodi:role="line"
         x="4.0925646"
         y="266.53009"
         style="stroke-width:0.26458332"
         id="tspan6409">L:128</tspan></text>
    <text
       xml:space="preserve"
       style="font-style:normal;font-weight:normal;font-size:10.58333302px;line-height:1.25;font-family:sans-serif;letter-spacing:0px;word-spacing:0px;fill:#000000;fill-opacity:1;stroke:none;stroke-width:0.26458332"
       x="23.970737"
       y="244.3813"
       id="text6405"><tspan
         sodipodi:role="line"
         id="tspan6403"
         x="23.970737"
         y="254.80588"
         style="stroke-width:0.26458332" /></text>
    <text
       xml:space="preserve"
       style="font-style:normal;font-weight:normal;font-size:10.58333302px;line-height:1.25;font-family:sans-serif;letter-spacing:0px;word-spacing:0px;fill:#000000;fill-opacity:1;stroke:none;stroke-width:0.26458332"
       x="43.848907"
       y="237.95013"
       id="text6413"><tspan
         sodipodi:role="line"
         id="tspan6411"
         x="43.848907"
         y="237.95013"
         style="stroke-width:0.26458332">H:128</tspan><tspan
         sodipodi:role="line"
         x="43.848907"
         y="252.24011"
         style="stroke-width:0.26458332"
         id="tspan6415">S:108</tspan><tspan
         sodipodi:role="line"
         x="43.848907"
         y="266.53009"
         style="stroke-width:0.26458332"
         id="tspan6417">L:128</tspan></text>
    <text
       xml:space="preserve"
       style="font-style:normal;font-weight:normal;font-size:10.58333302px;line-height:1.25;font-family:sans-serif;letter-spacing:0px;word-spacing:0px;fill:#000000;fill-opacity:1;stroke:none;stroke-width:0.26458332"
       x="85.943855"
       y="237.36549"
       id="text6421"><tspan
         sodipodi:role="line"
         id="tspan6419"
         x="85.943855"
         y="237.36549"
         style="stroke-width:0.26458332">H:128</tspan><tspan
         sodipodi:role="line"
         x="85.943855"
         y="251.65547"
         style="stroke-width:0.26458332"
         id="tspan6423">S:128</tspan><tspan
         sodipodi:role="line"
         x="85.943855"
         y="265.94547"
         style="stroke-width:0.26458332"
         id="tspan6425">L:128</tspan></text>
    <text
       xml:space="preserve"
       style="font-style:normal;font-weight:normal;font-size:10.58333302px;line-height:1.25;font-family:sans-serif;letter-spacing:0px;word-spacing:0px;fill:#000000;fill-opacity:1;stroke:none;stroke-width:0.26458332"
       x="123.94624"
       y="236.19618"
       id="text6429"><tspan
         sodipodi:role="line"
         id="tspan6427"
         x="123.94624"
         y="236.19618"
         style="stroke-width:0.26458332">H:128</tspan><tspan
         sodipodi:role="line"
         x="123.94624"
         y="250.48616"
         style="stroke-width:0.26458332"
         id="tspan6431">S:148</tspan><tspan
         sodipodi:role="line"
         x="123.94624"
         y="264.77615"
         style="stroke-width:0.26458332"
         id="tspan6433">L:128</tspan></text>
    <text
       xml:space="preserve"
       style="font-style:normal;font-weight:normal;font-size:10.58333302px;line-height:1.25;font-family:sans-serif;letter-spacing:0px;word-spacing:0px;fill:#000000;fill-opacity:1;stroke:none;stroke-width:0.26458332"
       x="164.87189"
       y="237.36548"
       id="text6437"><tspan
         sodipodi:role="line"
         id="tspan6435"
         x="164.87189"
         y="237.36548"
         style="stroke-width:0.26458332">H:128</tspan><tspan
         sodipodi:role="line"
         x="164.87189"
         y="251.65546"
         style="stroke-width:0.26458332"
         id="tspan6439">S:168</tspan><tspan
         sodipodi:role="line"
         x="164.87189"
         y="265.94543"
         style="stroke-width:0.26458332"
         id="tspan6441">L:128</tspan></text>
    <text
       xml:space="preserve"
       style="font-style:normal;font-weight:normal;font-size:10.58333302px;line-height:1.25;font-family:sans-serif;letter-spacing:0px;word-spacing:0px;fill:#000000;fill-opacity:1;stroke:none;stroke-width:0.26458332"
       x="5.8465204"
       y="55.538685"
       id="text6445"><tspan
         sodipodi:role="line"
         id="tspan6443"
         x="5.8465204"
         y="55.538685"
         style="stroke-width:0.26458332">H:88</tspan><tspan
         sodipodi:role="line"
         x="5.8465204"
         y="69.828667"
         style="stroke-width:0.26458332"
         id="tspan6447">S:128</tspan><tspan
         sodipodi:role="line"
         x="5.8465204"
         y="84.118645"
         style="stroke-width:0.26458332"
         id="tspan6449">L:128</tspan></text>
    <text
       xml:space="preserve"
       style="font-style:normal;font-weight:normal;font-size:10.58333302px;line-height:1.25;font-family:sans-serif;letter-spacing:0px;word-spacing:0px;fill:#000000;fill-opacity:1;stroke:none;stroke-width:0.26458332"
       x="45.245659"
       y="54.711864"
       id="text6453"><tspan
         sodipodi:role="line"
         id="tspan6451"
         x="45.245659"
         y="54.711864"
         style="stroke-width:0.26458332">H:108</tspan><tspan
         sodipodi:role="line"
         x="45.245659"
         y="69.001846"
         style="stroke-width:0.26458332"
         id="tspan6455">S:128</tspan><tspan
         sodipodi:role="line"
         x="45.245659"
         y="83.291824"
         style="stroke-width:0.26458332"
         id="tspan6457">L:128</tspan></text>
    <text
       xml:space="preserve"
       style="font-style:normal;font-weight:normal;font-size:10.58333302px;line-height:1.25;font-family:sans-serif;letter-spacing:0px;word-spacing:0px;fill:#000000;fill-opacity:1;stroke:none;stroke-width:0.26458332"
       x="84.189903"
       y="53.200077"
       id="text6461"><tspan
         sodipodi:role="line"
         id="tspan6459"
         x="84.189903"
         y="63.62466"
         style="stroke-width:0.26458332"></tspan><tspan
         sodipodi:role="line"
         x="84.189903"
         y="76.853828"
         style="stroke-width:0.26458332"
         id="tspan6463" /></text>
    <text
       xml:space="preserve"
       style="font-style:normal;font-weight:normal;font-size:10.58333302px;line-height:1.25;font-family:sans-serif;letter-spacing:0px;word-spacing:0px;fill:#000000;fill-opacity:1;stroke:none;stroke-width:0.26458332"
       x="85.3592"
       y="54.369385"
       id="text6467"><tspan
         sodipodi:role="line"
         id="tspan6465"
         x="85.3592"
         y="54.369385"
         style="stroke-width:0.26458332">H:128</tspan><tspan
         sodipodi:role="line"
         x="85.3592"
         y="68.659363"
         style="stroke-width:0.26458332"
         id="tspan6469">S:128</tspan><tspan
         sodipodi:role="line"
         x="85.3592"
         y="82.949348"
         style="stroke-width:0.26458332"
         id="tspan6471">L:128</tspan></text>
    <text
       xml:space="preserve"
       style="font-style:normal;font-weight:normal;font-size:10.58333302px;line-height:1.25;font-family:sans-serif;letter-spacing:0px;word-spacing:0px;fill:#000000;fill-opacity:1;stroke:none;stroke-width:0.26458332"
       x="129.20811"
       y="54.954033"
       id="text6475"><tspan
         sodipodi:role="line"
         id="tspan6473"
         x="129.20811"
         y="54.954033"
         style="stroke-width:0.26458332">H:148</tspan><tspan
         sodipodi:role="line"
         x="129.20811"
         y="69.244011"
         style="stroke-width:0.26458332"
         id="tspan6477">S:128</tspan><tspan
         sodipodi:role="line"
         x="129.20811"
         y="83.533997"
         style="stroke-width:0.26458332"
         id="tspan6479">L:128</tspan></text>
    <text
       xml:space="preserve"
       style="font-style:normal;font-weight:normal;font-size:10.58333302px;line-height:1.25;font-family:sans-serif;letter-spacing:0px;word-spacing:0px;fill:#000000;fill-opacity:1;stroke:none;stroke-width:0.26458332"
       x="171.30305"
       y="54.954033"
       id="text6483"><tspan
         sodipodi:role="line"
         id="tspan6481"
         x="171.30305"
         y="54.954033"
         style="stroke-width:0.26458332">H:168</tspan><tspan
         sodipodi:role="line"
         x="171.30305"
         y="69.244011"
         style="stroke-width:0.26458332"
         id="tspan6485">S:128</tspan><tspan
         sodipodi:role="line"
         x="171.30305"
         y="83.533997"
         style="stroke-width:0.26458332"
         id="tspan6487">L:128</tspan></text>
    <text
       xml:space="preserve"
       style="font-style:normal;font-weight:normal;font-size:10.58333302px;line-height:1.25;font-family:sans-serif;letter-spacing:0px;word-spacing:0px;fill:#000000;fill-opacity:1;stroke:none;stroke-width:0.26458332"
       x="22.751583"
       y="181.64989"
       id="text6623"><tspan
         sodipodi:role="line"
         id="tspan6621"
         x="22.751583"
         y="192.07446"
         style="stroke-width:0.26458332" /></text>
    <text
       xml:space="preserve"
       style="font-style:normal;font-weight:normal;font-size:10.58333302px;line-height:1.25;font-family:sans-serif;letter-spacing:0px;word-spacing:0px;fill:#000000;fill-opacity:1;stroke:none;stroke-width:0.26458332"
       x="294.34897"
       y="169.66927"
       id="text6627"><tspan
         sodipodi:role="line"
         id="tspan6625"
         x="294.34897"
         y="180.09384"
         style="stroke-width:0.26458332" /></text>
    <flowRoot
       xml:space="preserve"
       id="flowRoot6629"
       style="fill:black;fill-opacity:1;stroke:none;font-family:sans-serif;font-style:normal;font-weight:normal;font-size:40px;line-height:1.25;letter-spacing:0px;word-spacing:0px"><flowRegion
         id="flowRegion6631"><rect
           id="rect6633"
           width="65.214844"
           height="71.216805"
           x="23.587891"
           y="561.32617" /></flowRegion><flowPara
         id="flowPara6635"></flowPara></flowRoot>    <flowRoot
       xml:space="preserve"
       id="flowRoot6637"
       style="fill:black;fill-opacity:1;stroke:none;font-family:sans-serif;font-style:normal;font-weight:normal;font-size:40px;line-height:1.25;letter-spacing:0px;word-spacing:0px"><flowRegion
         id="flowRegion6639"><rect
           id="rect6641"
           width="122.25288"
           height="125.22458"
           x="23.587891"
           y="561.32617" /></flowRegion><flowPara
         id="flowPara6643"></flowPara></flowRoot>    <text
       xml:space="preserve"
       style="font-style:normal;font-weight:normal;font-size:10.58333302px;line-height:1.25;font-family:sans-serif;letter-spacing:0px;word-spacing:0px;fill:#000000;fill-opacity:1;stroke:none;stroke-width:0.26458332"
       x="27.097572"
       y="174.6219"
       id="text6647"><tspan
         sodipodi:role="line"
         x="27.097572"
         y="185.04648"
         style="stroke-width:0.26458332"
         id="tspan6649" /></text>
    <flowRoot
       xml:space="preserve"
       id="flowRoot6653"
       style="fill:black;fill-opacity:1;stroke:none;font-family:sans-serif;font-style:normal;font-weight:normal;font-size:40px;line-height:1.25;letter-spacing:0px;word-spacing:0px"><flowRegion
         id="flowRegion6655"><rect
           id="rect6657"
           width="39.062504"
           height="55.494122"
           x="23.587891"
           y="561.32617" /></flowRegion><flowPara
         id="flowPara6659"></flowPara></flowRoot>    <flowRoot
       xml:space="preserve"
       id="flowRoot6661"
       style="fill:black;fill-opacity:1;stroke:none;font-family:sans-serif;font-style:normal;font-weight:normal;font-size:40px;line-height:1.25;letter-spacing:0px;word-spacing:0px"><flowRegion
         id="flowRegion6663"><rect
           id="rect6665"
           width="122.25288"
           height="137.17772"
           x="23.587891"
           y="549.37305" /></flowRegion><flowPara
         id="flowPara6667"></flowPara></flowRoot>    <text
       xml:space="preserve"
       style="font-style:normal;font-weight:normal;font-size:10.58333302px;line-height:1.25;font-family:sans-serif;letter-spacing:0px;word-spacing:0px;fill:#000000;fill-opacity:1;stroke:none;stroke-width:0.26458332"
       x="7.8548179"
       y="153.95963"
       id="text6671"><tspan
         sodipodi:role="line"
         id="tspan6669"
         x="7.8548179"
         y="153.95963"
         style="stroke-width:0.26458332">H:128</tspan><tspan
         sodipodi:role="line"
         x="7.8548179"
         y="168.2496"
         style="stroke-width:0.26458332"
         id="tspan6673">S:255</tspan><tspan
         sodipodi:role="line"
         x="7.8548179"
         y="182.53958"
         style="stroke-width:0.26458332"
         id="tspan6675">L:120</tspan></text>
  </g>
</svg>
